<svg width="40" height="40" viewBox="0 0 40 40" fill="none" xmlns="http://www.w3.org/2000/svg">
<circle cx="20" cy="20" r="20" fill="white"/>
<g clip-path="url(#clip0_59_22)">
<path d="M15.7266 9.86252C14.7562 10.3297 13.5703 11.0844 13.1391 11.5516C12.2406 12.5578 10.9109 15.361 10.875 16.2594C10.875 16.6188 10.6594 16.9063 10.3719 16.9063C9.11406 16.9063 8.71875 17.9485 8.71875 21.2188C8.71875 24.5969 9.11406 25.5313 10.5516 25.5313C10.9469 25.5313 11.5578 25.711 11.9172 25.9625C12.2766 26.1781 12.8516 26.25 13.175 26.1422C13.7141 25.9266 13.75 25.3156 13.6781 21.1469L13.5703 16.3672H12.6C11.7375 16.4031 11.6297 16.2953 11.8453 15.4688C11.9531 14.9656 12.3125 14.1391 12.6 13.6L13.175 12.6297L14.3609 13.7078C15.0437 14.2828 15.6547 14.75 15.7266 14.75C15.8344 14.75 16.5172 14.4266 17.2359 14.0313C17.9906 13.636 18.9969 13.3125 19.5 13.3125C20.0031 13.3125 21.0094 13.636 21.7641 14.0313C22.4828 14.4266 23.1656 14.75 23.2734 14.75C23.3453 14.75 23.9562 14.2828 24.6391 13.7078L25.825 12.6297L26.4 13.6C26.6875 14.1391 27.0469 14.9656 27.1547 15.4688C27.3703 16.2953 27.2625 16.4031 26.4 16.3672H25.4297L25.3219 21.1469C25.25 25.3156 25.2859 25.9266 25.825 26.1422C26.1484 26.25 26.7234 26.1781 27.0828 25.9266C28.2687 25.2078 27.9453 27.1844 26.7234 28.4422C25.8609 29.2688 25.3578 29.4844 24.0641 29.4844C23.0578 29.4844 22.3031 29.2688 22.0156 28.9094C21.4047 28.1906 19.5359 28.3703 18.9969 29.2328C18.0984 30.6344 20.9016 32.0719 22.0156 30.7781C22.2672 30.4188 23.0219 30.2031 23.8844 30.2031C26.4 30.2031 28.4844 28.4422 28.4844 26.25C28.4844 25.8547 28.6281 25.5313 28.8078 25.5313C28.9875 25.5313 29.4187 25.2797 29.7062 24.9563C30.5328 24.1656 30.5328 18.2719 29.7062 17.4813C29.4187 17.1578 28.9156 16.9063 28.6281 16.9063C28.3406 16.9063 28.125 16.6188 28.125 16.2594C28.125 15.2891 26.5078 12.1266 25.5734 11.2641C23.0578 8.96408 18.8891 8.35315 15.7266 9.86252ZM22.6266 10.2578C23.3812 10.5813 24.2437 11.0844 24.6031 11.4078C25.25 11.9828 25.2141 12.0547 24.3156 12.9891L23.3453 13.9953L21.9797 13.2766C20.2547 12.4141 18.7453 12.4141 17.0203 13.2766L15.6547 13.9953L14.6844 12.9891C13.7859 12.0547 13.75 11.9828 14.3969 11.4078C16.1937 9.75471 20.1469 9.21564 22.6266 10.2578ZM13.0312 21.2188C13.0312 23.8422 12.8875 25.5313 12.6719 25.5313C12.4562 25.5313 12.3125 23.8422 12.3125 21.2188C12.3125 18.5953 12.4562 16.9063 12.6719 16.9063C12.8875 16.9063 13.0312 18.5953 13.0312 21.2188ZM26.6875 21.2188C26.6875 23.8422 26.5437 25.5313 26.3281 25.5313C26.1125 25.5313 25.9688 23.8422 25.9688 21.2188C25.9688 18.5953 26.1125 16.9063 26.3281 16.9063C26.5437 16.9063 26.6875 18.5953 26.6875 21.2188ZM11.5938 21.2547V24.8485L10.6234 24.7406C9.61719 24.6328 9.61719 24.5969 9.50937 21.6141C9.40156 18.0203 9.50937 17.625 10.6953 17.625H11.5938V21.2547ZM29.3828 21.2188V24.6328L28.4125 24.7406L27.4062 24.8485V21.2188V17.5891L28.4125 17.6969L29.3828 17.8047V21.2188ZM21.4766 29.8438C21.4766 30.4906 20.2906 30.7781 19.7875 30.275C19.5719 30.0594 19.5359 29.736 19.6797 29.4844C20.0391 28.9094 21.4766 29.1969 21.4766 29.8438Z" fill="black"/>
<path d="M19.1406 11.1562C19.1406 11.5516 19.3203 11.875 19.5 11.875C19.7156 11.875 19.8594 11.5516 19.8594 11.1562C19.8594 10.7609 19.7156 10.4375 19.5 10.4375C19.3203 10.4375 19.1406 10.7609 19.1406 11.1562Z" fill="black"/>
<path d="M17.3438 11.3C17.3438 11.6234 17.5234 11.875 17.7031 11.875C17.9187 11.875 18.0625 11.7313 18.0625 11.5516C18.0625 11.3359 17.9187 11.0844 17.7031 10.9766C17.5234 10.8687 17.3438 11.0125 17.3438 11.3Z" fill="black"/>
<path d="M21.1531 11.1203C21.0094 11.3719 20.9734 11.6594 21.0812 11.7672C21.4047 12.0906 21.7641 11.6235 21.5844 11.1203C21.4406 10.725 21.3687 10.725 21.1531 11.1203Z" fill="black"/>
<path d="M15.1875 11.8032C15.1875 11.9829 15.4391 12.3782 15.7625 12.6297C16.2656 13.061 16.3375 13.025 16.2297 12.45C16.0859 11.7313 15.1875 11.1922 15.1875 11.8032Z" fill="black"/>
<path d="M22.9859 11.7672C22.8422 11.875 22.7344 12.2344 22.7344 12.5219C22.7344 12.9531 22.8422 12.9531 23.2734 12.5938C23.5609 12.3422 23.8125 12.0188 23.8125 11.8391C23.8125 11.4438 23.3094 11.4078 22.9859 11.7672Z" fill="black"/>
</g>
<defs>
<clipPath id="clip0_59_22">
<rect width="23" height="23" fill="white" transform="translate(8 9)"/>
</clipPath>
</defs>
</svg>
